<?xml version="1.0" encoding="UTF-8"?>
<svg width="752pt" height="752pt" version="1.1" viewBox="0 0 752 752" xmlns="http://www.w3.org/2000/svg">
 <g>
  <path d="m488.13 496.27c-0.56641-3.5039-1.6094-7.1055-3.125-10.703-1.4219-3.5039-3.7891-7.5781-6.8203-11.934 0.28516 2.1797 0.47266 4.0742 0.37891 5.1133-0.28516 3.125-17.809 9.8516-36.75-1.6094-19.035-11.461-19.891-23.301-21.691-35.328-1.7031-12.125 12.406-15.723 12.406-15.723 1.3242 0.1875 2.5586 0.28516 3.6953 0.09375-6.9141-6.9141-13.828-13.449-20.078-19.418-0.37891 4.832 2.3672 10.891 2.3672 10.891-11.746 32.488 4.3555 46.789 14.777 58.629 10.418 11.934 37.129 16.195 46.98 16.387 3.2188 0.097656 5.7773 1.5156 7.8594 3.6016z"/>
  <path d="m439.36 449.86c1.1367 0.28516 9.4727 0.09375 17.523-2.2734-1.3242-1.4219-2.6523-2.9375-4.0742-4.3555-3.8828 1.3242-7.957 2.5586-10.609 2.8398-6.7227 0.85156-4.3555 3.4102-2.8398 3.7891z"/>
  <path d="m259.77 226.99-12.027-9.8516c-0.37891-0.94531-2.8398-7.1055-3.2188-7.8633l-0.09375 0.09375c-2.2734-2.082-12.219 8.4297-9.8516 10.609 1.043 0.37891 7.1992 2.3672 7.957 2.7461 0 0 22.922 22.07 46.883 41.484 10.891 8.9023 19.512 16.953 25.668 23.016 2.7461 2.7461 5.3047 5.5898 7.7656 8.4297l46.031-41.676c-37.793-34.098-76.531-68.953-104-93.863 0 0 1.9883-1.7031-3.9766-6.25 0 0-0.09375-5.9688-4.0742-5.1133-4.0742 0.75781-19.512 17.238-19.984 21.406-0.66406 4.168 5.3047 3.7891 5.3047 3.7891 5.1133 5.5898 6.6289 3.5039 6.6289 3.5039l10.988 10.609-7.7656 21.594c-0.66406 1.8945-0.28516 3.9766 1.2305 5.3984 5.0195 5.1133 17.617 17.809 31.445 32.582-0.66406-0.66406-1.1367-1.043-1.1367-1.043z"/>
  <path d="m493.72 481.87c10.891 26.332 0 49.82-7.6719 66.395 7.3867 1.4219 14.492 2.1797 21.121 2.1797 16.859 0 27.371-4.6406 33.34-8.6211l6.0625-3.9766c2.4609-26.992 9.5664-50.957-1.8008-90.832-6.3477-22.543-18.469-42.242-29.078-56.547 3.9766-3.125 7.0078-7.5781 7.7656-13.828 0.85156-6.6289-11.648-13.543-14.965-12.598-3.3164 0.94531-2.2734 4.4531 2.6523 9.6602 4.168 4.3555 1.1367 9.4727 0.09375 10.988-8.2422-10.418-14.777-16.859-15.723-17.711 1.043-0.85156 10.23-7.8633 7.1055-14.586l-11.367 12.125c-7.8633-7.1055-31.16-28.227-60.996-55.125-2.4609 3.125-4.832 6.1562-7.8633 9.0938-8.7148 13.07-25.195 30.402-39.688 44.707 11.555 11.176 20.457 19.133 20.457 19.133 0.003906-0.003906 77.199 66.961 90.555 99.543zm-68.102-118.02c6.0625 1.8008 17.332 5.5898 29.742 12.691 6.1562 3.5977 12.691 7.8633 18.848 13.164 7.7656 6.3477 15.059 14.207 21.215 23.773 25.859 40.539 24.723 53.23 18.562 52-5.9648-1.1367-90.926-77.383-96.516-93.484-1.7031-4.8281 3.1289-9.5664 8.1484-8.1445z"/>
  <path d="m545.71 549.75c-9.3398 6.1797-29.23 14.57-63.605 7.3672-0.28516 0.625-0.49219 1.3242-0.78125 1.9531-5.9805 16.309 1.082 22.305 14.352 38.406 9.25 11.312 32.867 3.7109 46.234-1.8359 13.883-5.707 2.7383-18.73 3.8008-45.891z"/>
  <path d="m335.73 406.76c-6.25 5.9688-13.164 12.504-20.176 19.418 1.2305 0.1875 2.4609 0.09375 3.7891-0.09375 0 0 14.113 3.5977 12.406 15.723-1.8008 12.027-2.6523 23.867-21.691 35.328-18.941 11.461-36.465 4.7344-36.75 1.6094-0.09375-1.043 0.09375-2.9375 0.37891-5.1133-3.0312 4.3555-5.3047 8.3359-6.7266 11.84-1.5156 3.6953-2.6523 7.293-3.2188 10.891 2.082-2.1797 4.6406-3.5977 7.8633-3.6953 9.8516-0.1875 36.559-4.4531 46.98-16.387 10.418-11.84 26.52-26.141 14.777-58.629 0 0.003906 2.7461-6.0586 2.3672-10.891z"/>
  <path d="m312.53 449.86c1.5156-0.37891 3.8828-2.9375-2.8398-3.7891-2.7461-0.28516-6.8203-1.5156-10.703-2.8398-1.3242 1.4219-2.6523 2.9375-3.9766 4.3555 8.0469 2.3672 16.383 2.5547 17.52 2.2734z"/>
  <path d="m482.71 164.03c-0.26953 0.24219-0.58203 0.52734-0.92969 0.83984 0.0625-0.054688 0.11328-0.10156 0.17188-0.15625 0.24219-0.21484 0.50391-0.45312 0.75781-0.68359z"/>
  <path d="m462.43 264.21c24.016-19.426 46.891-41.512 46.891-41.512l7.3281-2.5195 0.69922-0.20703c0.95312-0.89062-0.40234-3.9414-3.1523-6.8906-2.75-2.9453-5.7734-4.5898-6.7266-3.6992l-0.074219-0.078124-0.16797 0.45703-3.1016 7.3633-12.051 9.9062c-16.82 13.891-21.781 18.008-24.902 20.559 13.836-14.699 26.453-27.465 31.48-32.531 1.5156-1.4219 1.8945-3.5039 1.2305-5.3984l-7.7656-21.594 10.988-10.609s1.5156 2.082 6.6289-3.5039c0 0 5.9688 0.37891 5.3047-3.7891-0.47266-4.168-15.914-20.648-19.984-21.406-3.9766-0.85156-4.0742 5.1133-4.0742 5.1133-5.9688 4.5469-3.9766 6.25-3.9766 6.25l-3.3164 3.0312c-0.027344 0.023437-0.050781 0.046875-0.078125 0.070312 0 0 0.003906-0.003906 0.011719-0.011718-0.050782 0.046874-0.13672 0.12109-0.25 0.22656 0.070312-0.0625 0.12109-0.10938 0.17188-0.15234-0.12109 0.10938-0.22656 0.20312-0.34766 0.3125 0.050782-0.046875 0.11328-0.10156 0.15625-0.14062-0.13281 0.12109-0.32031 0.28906-0.54687 0.49219-0.03125 0.03125-0.0625 0.058593-0.09375 0.085937 0.011718-0.011718 0.027343-0.023437 0.039062-0.035156-0.21875 0.19922-0.48438 0.4375-0.79688 0.71875-0.089844 0.082031-0.19531 0.17578-0.28125 0.25391 0.035156-0.03125 0.074219-0.066406 0.10938-0.097656-0.16016 0.14453-0.33984 0.30469-0.52344 0.47266-0.78125 0.70703-1.4766 1.332-2.1016 1.8945-0.45703 0.41406-0.94922 0.85547-1.4883 1.3438-1.918 1.7305-2.7734 2.5039-2.9023 2.6211-18.883 17.047-73.406 66.27-214.14 193.31l-11.367-12.125c-3.125 6.7266 6.0625 13.734 7.1055 14.586-0.91016 0.87109-7.5 7.3242-15.75 17.699-1.0234-1.4727-4.0625-6.6328 0.12109-11.004 4.9297-5.1523 5.957-8.6797 2.6641-9.6523-3.293-0.96875-15.797 6.0117-14.98 12.598 0.78125 6.2852 3.7734 10.742 7.75 13.828-10.617 14.281-22.695 34.043-29.059 56.562-10.988 38.645-4.3555 63.555-1.9883 90.645v0.09375l6.25 4.0742c5.9688 3.9766 16.48 8.6211 33.34 8.6211 6.6289 0 13.734-0.75781 21.121-2.1797-7.6719-16.574-18.562-40.066-7.6719-66.395 13.355-32.582 90.547-99.547 90.547-99.547s49.941-44.805 66.387-69.938c9.7969-9.1406 9.9922-17.434 47.332-48.176zm-128.02 107.79c-5.5898 16.102-90.547 92.348-96.516 93.484-6.1562 1.2305-7.293-11.461 18.562-52 15.469-24.41 42.277-41.328 69.809-49.633 5.0195-1.418 9.8477 3.3203 8.1445 8.1484z"/>
  <path d="m269.77 557.12c-34.375 7.2031-54.27-1.1875-63.605-7.3672 1.0664 27.16-10.082 40.18 3.8008 45.891 13.367 5.5469 36.984 13.148 46.234 1.8359 13.27-16.102 20.332-22.098 14.352-38.406-0.28516-0.62891-0.49609-1.3281-0.78125-1.9531z"/>
 </g>
</svg>
