<?xml version="1.0" encoding="UTF-8"?>
<svg width="752pt" height="752pt" version="1.1" viewBox="0 0 752 752" xmlns="http://www.w3.org/2000/svg">
 <path d="m606.05 346.67c-1.4023-1.1133-3.2305-1.5234-4.9727-1.1289l-19.121 4.4102c-0.09375 0.023437-0.17969 0.066406-0.27344 0.09375-0.050781-0.003906-0.097656-0.007813-0.14844-0.007813h-262.93c3.4961-3.0469 7.7969-5.957 13.262-8.6445 1.5234-0.75 2.1562-2.5898 1.4062-4.1094-0.75-1.5195-2.5898-2.1484-4.1094-1.4023-8.6992 4.2734-14.812 9.1211-19.316 14.156h-25.195c-4.7656 0-8.6719 3.6523-9.0781 8.3164-35.539 0.73047-61.535 4.1953-81.309 10.785-15.289 5.0977-32.23 5.6445-38.801 5.6445-1.3828 0-2.1914-0.027344-2.2695-0.027344-4.1016-0.13281-7.8047 2.4609-9.0352 6.3789-1.2305 3.9219 0.3125 8.1797 3.7695 10.406l36.477 23.445c1.5156 0.97266 3.2266 1.4531 4.9297 1.4531 2.5117 0 4.9961-1.0469 6.7812-3.0273 13.664-15.18 38.641-32.914 64.051-32.914h34.234c-2.4219 5.6367-5.4141 10.152-11.461 13.129-8.8945 4.3672-16.746 4.2812-21-0.23047-1.875-1.9883-2.7891-4.6523-2.75-7.5586-2.6836 0.13672-4.7031 0.39844-6.1484 0.66016 0.10547 4.1914 1.582 8.0938 4.4219 11.109 3.3672 3.582 8.0117 5.3828 13.395 5.3828 4.5234 0 9.5625-1.2773 14.789-3.8516 8.7461-4.2969 12.438-11.113 15.383-18.641h258.28c5.0352 0 9.1172-4.0781 9.1172-9.1172v-3.1172h13.117c0.050781 0 0.097656-0.003906 0.14844-0.003906 0.09375 0.023437 0.17578 0.066406 0.27344 0.085937l19.117 4.4141c0.4375 0.097656 0.88281 0.14844 1.3164 0.14844 1.3125 0 2.6055-0.44141 3.6523-1.2773 1.4023-1.1094 2.2227-2.8047 2.2227-4.5898v-15.781c-0.007813-1.7852-0.82812-3.4766-2.2227-4.5898z"/>
</svg>
