<svg width="752" height="752" xmlns="http://www.w3.org/2000/svg" version="1.1">

 <g>
  <title>Layer 1</title>
  <path transform="rotate(-37.5631 329.008 333.003)" fill="#ff0000" stroke="null" id="svg_1" d="m559.05,303.67c-1.4023,-1.1133 -3.2305,-1.5234 -4.9727,-1.1289l-19.121,4.4102c-0.09375,0.02344 -0.17969,0.06641 -0.27344,0.09375c-0.05078,-0.00391 -0.09766,-0.00781 -0.14844,-0.00781l-262.93,0c3.4961,-3.0469 7.7969,-5.957 13.262,-8.6445c1.5234,-0.75 2.1562,-2.5898 1.4062,-4.1094c-0.75,-1.5195 -2.5898,-2.1484 -4.1094,-1.4023c-8.6992,4.2734 -14.812,9.1211 -19.316,14.156l-25.195,0c-4.7656,0 -8.6719,3.6523 -9.0781,8.3164c-35.539,0.73047 -61.535,4.1953 -81.309,10.785c-15.289,5.0977 -32.23,5.6445 -38.801,5.6445c-1.3828,0 -2.1914,-0.02735 -2.2695,-0.02735c-4.1016,-0.13281 -7.8047,2.4609 -9.0352,6.3789c-1.2305,3.9219 0.3125,8.1797 3.7695,10.406l36.477,23.445c1.5156,0.97266 3.2266,1.4531 4.9297,1.4531c2.5117,0 4.9961,-1.0469 6.7812,-3.0273c13.664,-15.18 38.641,-32.914 64.051,-32.914l34.234,0c-2.4219,5.6367 -5.4141,10.152 -11.461,13.129c-8.8945,4.3672 -16.746,4.2812 -21,-0.23047c-1.875,-1.9883 -2.7891,-4.6523 -2.75,-7.5586c-2.6836,0.13672 -4.7031,0.39844 -6.1484,0.66016c0.10547,4.1914 1.582,8.0938 4.4219,11.109c3.3672,3.582 8.0117,5.3828 13.395,5.3828c4.5234,0 9.5625,-1.2773 14.789,-3.8516c8.7461,-4.2969 12.438,-11.113 15.383,-18.641l258.28,0c5.0352,0 9.1172,-4.0781 9.1172,-9.1172l0,-3.1172l13.117,0c0.05078,0 0.09766,-0.0039 0.14844,-0.0039c0.09375,0.02343 0.17578,0.0664 0.27344,0.08593l19.117,4.4141c0.4375,0.09766 0.88281,0.14844 1.3164,0.14844c1.3125,0 2.6055,-0.44141 3.6523,-1.2773c1.4023,-1.1094 2.2227,-2.8047 2.2227,-4.5898l0,-15.781c-0.00781,-1.7852 -0.82812,-3.4766 -2.2227,-4.5898l-0.0031,0.00115z"/>
  <path transform="rotate(38.5996 367.069 318.659)" fill="#ff0000" stroke="null" id="svg_2" d="m137.47026,289.32637c1.3996,-1.1133 3.22428,-1.5234 4.96312,-1.1289l19.08416,4.4102c0.09357,0.02344 0.17934,0.06641 0.27291,0.09375c0.05068,-0.00391 0.09747,-0.00781 0.14815,-0.00781l262.42347,0c-3.48936,-3.0469 -7.78188,-5.957 -13.23645,-8.6445c-1.52047,-0.75 -2.15205,-2.5898 -1.40349,-4.1094c0.74856,-1.5195 2.58481,-2.1484 4.10148,-1.4023c8.68244,4.2734 14.78346,9.1211 19.27879,14.156l25.14646,0c4.75642,0 8.65519,3.6523 9.06061,8.3164c35.47053,0.73047 61.41645,4.1953 81.15236,10.785c15.25955,5.0977 32.16791,5.6445 38.72625,5.6445c1.38014,0 2.18718,-0.02735 2.26513,-0.02735c4.0937,-0.13281 7.78966,2.4609 9.01779,6.3789c1.22813,3.9219 -0.3119,8.1797 -3.76224,10.406l-36.40673,23.445c-1.51268,0.97266 -3.22038,1.4531 -4.9202,1.4531c-2.50686,0 -4.98648,-1.0469 -6.76814,-3.0273c-13.63768,-15.18 -38.56656,-32.914 -63.92761,-32.914l-34.16805,0c2.41723,5.6367 5.40367,10.152 11.43892,13.129c8.87736,4.3672 16.71374,4.2812 20.95954,-0.23047c1.87139,-1.9883 2.78373,-4.6523 2.7447,-7.5586c2.67843,0.13672 4.69404,0.39844 6.13656,0.66016c-0.10527,4.1914 -1.57895,8.0938 -4.41338,11.109c-3.36071,3.582 -7.99627,5.3828 -13.36919,5.3828c-4.51469,0 -9.54408,-1.2773 -14.76051,-3.8516c-8.72925,-4.2969 -12.41404,-11.113 -15.35336,-18.641l-257.78243,0c-5.0255,0 -9.09964,-4.0781 -9.09964,-9.1172l0,-3.1172l-13.09173,0c-0.05068,0 -0.09747,-0.0039 -0.14815,-0.0039c-0.09357,0.02343 -0.17544,0.0664 -0.27291,0.08593l-19.08017,4.4141c-0.43666,0.09766 -0.88111,0.14844 -1.31386,0.14844c-1.30997,0 -2.60048,-0.44141 -3.64526,-1.2773c-1.3996,-1.1094 -2.21842,-2.8047 -2.21842,-4.5898l0,-15.781c0.00779,-1.7852 0.82652,-3.4766 2.21842,-4.5898l0.00309,0.00115z"/>
 </g>
</svg>