<?xml version="1.0" encoding="UTF-8"?>
<svg version="1.1" viewBox="0 0 173.7 308.55" xmlns="http://www.w3.org/2000/svg" xmlns:cc="http://creativecommons.org/ns#" xmlns:dc="http://purl.org/dc/elements/1.1/" xmlns:rdf="http://www.w3.org/1999/02/22-rdf-syntax-ns#">
<g transform="translate(-308.66 -170.24)">
<g transform="translate(308.65 63.64)" fill="none" stroke="#000">
<path transform="matrix(.90426 0 0 .90426 -102.2 -42.316)" d="m300 198.79a90.714 28.571 0 1 1-181.43 0 90.714 28.571 0 1 1 181.43 0z" stroke-width="11.059"/>
<g transform="translate(-.83653 -3.4724)" stroke-width="10">
<path d="m5.8571 140.93v50.714c0 26.364 61.429 37.705 61.429 61.429v11.429"/>
<path d="m5.8571 388.01v-50.714c0-26.364 61.429-37.705 61.429-61.429v-11.429"/>
</g>
<g transform="matrix(-1 0 0 1 174.94 -3.4724)" stroke-width="10">
<path d="m5.8571 140.93v50.714c0 26.364 61.429 37.705 61.429 61.429v11.429"/>
<path d="m5.8571 388.01v-50.714c0-26.364 61.429-37.705 61.429-61.429v-11.429"/>
</g>
<path d="m5.0287 384.15s-3.4827 26.011 81.317 26.011 82.708-26.011 82.708-26.011" stroke-width="10"/>
</g>
<path d="m328.72 250.15c-0.0717 0.1404 32.963 18.738 67.965 18.208 35.002-0.53033 66.465-19.269 66.465-19.269 0.70063 0-17.933 19.436-54.676 43.767-13.466 21.621-11.112 45.199-12.496 45.328-1.3838 0.12912 1.3821-25.682-13.203-46.846-36.575-24.856-53.983-41.329-54.055-41.189z"/>
<path d="m328.72 445.12c2.7568 1.9809 32.963 9.8995 67.965 10.43 35.002 0.53033 64.347-6.364 66.465-9.3692 2.1181-3.0052-27.422-24.553-44.565-29.171-13.405-3.6112-21.619-19.903-24.021-19.903-2.4021 0-13.408 16.236-26.496 19.421-15.753 3.8338-42.105 26.612-39.348 28.593z"/>
</g>
<metadata>
<rdf:RDF>
<cc:Work>
<dc:format>image/svg+xml</dc:format>
<dc:type rdf:resource="http://purl.org/dc/dcmitype/StillImage"/>
<cc:license rdf:resource="http://creativecommons.org/licenses/publicdomain/"/>
<dc:publisher>
<cc:Agent rdf:about="http://openclipart.org/">
<dc:title>Openclipart</dc:title>
</cc:Agent>
</dc:publisher>
<dc:title>hourglass</dc:title>
<dc:date>2012-11-25T22:51:37</dc:date>
<dc:description>Black and white hourglass</dc:description>
<dc:source>https://openclipart.org/detail/173360/hourglass-by-markroth8-173360</dc:source>
<dc:creator>
<cc:Agent>
<dc:title>markroth8</dc:title>
</cc:Agent>
</dc:creator>
<dc:subject>
<rdf:Bag>
<rdf:li>clock</rdf:li>
<rdf:li>hour glass</rdf:li>
<rdf:li>hourglass</rdf:li>
<rdf:li>sand</rdf:li>
<rdf:li>time</rdf:li>
<rdf:li>timer</rdf:li>
</rdf:Bag>
</dc:subject>
</cc:Work>
<cc:License rdf:about="http://creativecommons.org/licenses/publicdomain/">
<cc:permits rdf:resource="http://creativecommons.org/ns#Reproduction"/>
<cc:permits rdf:resource="http://creativecommons.org/ns#Distribution"/>
<cc:permits rdf:resource="http://creativecommons.org/ns#DerivativeWorks"/>
</cc:License>
</rdf:RDF>
</metadata>
</svg>
